<svg width="137" height="44" viewBox="0 0 137 44" fill="none" xmlns="http://www.w3.org/2000/svg">
<rect width="137" height="44" rx="22" fill="#57636C"/>
<path d="M51.0092 29.0348H52.5852C52.2422 27.0511 50.5469 25.679 48.3494 25.679C45.7145 25.679 43.7905 27.6626 43.7905 30.9141C43.7905 34.1357 45.6598 36.1392 48.419 36.1392C50.8899 36.1392 52.6548 34.5185 52.6548 31.9482V30.7898H48.6527V32.0575H51.1683C51.1335 33.6982 50.0497 34.7372 48.419 34.7372C46.6243 34.7372 45.3168 33.38 45.3168 30.9041C45.3168 28.4382 46.6342 27.081 48.3594 27.081C49.7116 27.081 50.6264 27.8267 51.0092 29.0348ZM57.7022 36.1541C59.8549 36.1541 61.2619 34.5781 61.2619 32.2166C61.2619 29.8402 59.8549 28.2642 57.7022 28.2642C55.5495 28.2642 54.1426 29.8402 54.1426 32.2166C54.1426 34.5781 55.5495 36.1541 57.7022 36.1541ZM57.7072 34.9062C56.3002 34.9062 55.644 33.6783 55.644 32.2116C55.644 30.75 56.3002 29.5071 57.7072 29.5071C59.1042 29.5071 59.7605 30.75 59.7605 32.2116C59.7605 33.6783 59.1042 34.9062 57.7072 34.9062ZM66.1378 36.1541C68.2905 36.1541 69.6974 34.5781 69.6974 32.2166C69.6974 29.8402 68.2905 28.2642 66.1378 28.2642C63.9851 28.2642 62.5781 29.8402 62.5781 32.2166C62.5781 34.5781 63.9851 36.1541 66.1378 36.1541ZM66.1428 34.9062C64.7358 34.9062 64.0795 33.6783 64.0795 32.2116C64.0795 30.75 64.7358 29.5071 66.1428 29.5071C67.5398 29.5071 68.196 30.75 68.196 32.2116C68.196 33.6783 67.5398 34.9062 66.1428 34.9062ZM74.5584 39.0227C76.5023 39.0227 78.0037 38.1328 78.0037 36.169V28.3636H76.5471V29.6016H76.4377C76.1742 29.1293 75.6472 28.2642 74.2253 28.2642C72.3809 28.2642 71.0236 29.7209 71.0236 32.152C71.0236 34.5881 72.4107 35.8857 74.2154 35.8857C75.6174 35.8857 76.1593 35.0952 76.4277 34.608H76.5222V36.1094C76.5222 37.3075 75.7019 37.8246 74.5733 37.8246C73.3354 37.8246 72.8532 37.2031 72.5897 36.7656L71.312 37.2926C71.7147 38.2273 72.7338 39.0227 74.5584 39.0227ZM74.5435 34.6527C73.2161 34.6527 72.525 33.6335 72.525 32.1321C72.525 30.6655 73.2012 29.527 74.5435 29.527C75.8411 29.527 76.5371 30.5859 76.5371 32.1321C76.5371 33.7081 75.8262 34.6527 74.5435 34.6527ZM81.4838 25.8182H79.9973V36H81.4838V25.8182ZM86.7749 36.1541C88.4403 36.1541 89.6186 35.3338 89.9567 34.0909L88.5497 33.8374C88.2812 34.5582 87.6349 34.9261 86.7898 34.9261C85.517 34.9261 84.6619 34.1009 84.6222 32.6293H90.0511V32.1023C90.0511 29.343 88.4006 28.2642 86.6705 28.2642C84.5426 28.2642 83.1406 29.8849 83.1406 32.2315C83.1406 34.603 84.5227 36.1541 86.7749 36.1541ZM84.6271 31.5156C84.6868 30.4318 85.4723 29.4922 86.6804 29.4922C87.8338 29.4922 88.5895 30.3473 88.5945 31.5156H84.6271ZM95.5249 36H97.0611V32.4205H99.1491C101.511 32.4205 102.679 30.9936 102.679 29.1143C102.679 27.2401 101.521 25.8182 99.1541 25.8182H95.5249V36ZM97.0611 31.1179V27.1357H98.9901C100.511 27.1357 101.133 27.9609 101.133 29.1143C101.133 30.2678 100.511 31.1179 99.0099 31.1179H97.0611ZM105.847 25.8182H104.361V36H105.847V25.8182ZM110.069 36.169C111.332 36.169 112.043 35.5277 112.326 34.956H112.386V36H113.838V30.929C113.838 28.7067 112.088 28.2642 110.875 28.2642C109.493 28.2642 108.22 28.821 107.723 30.2131L109.12 30.5312C109.338 29.9893 109.895 29.4673 110.895 29.4673C111.854 29.4673 112.346 29.9695 112.346 30.8345V30.8693C112.346 31.4112 111.789 31.4013 110.417 31.5604C108.971 31.7294 107.489 32.1072 107.489 33.8423C107.489 35.3438 108.618 36.169 110.069 36.169ZM110.392 34.9759C109.552 34.9759 108.946 34.598 108.946 33.8622C108.946 33.0668 109.652 32.7834 110.512 32.669C110.994 32.6044 112.137 32.4751 112.351 32.2614V33.2457C112.351 34.1506 111.63 34.9759 110.392 34.9759ZM116.484 38.8636C117.712 38.8636 118.487 38.2223 118.93 37.0192L122.077 28.3636H120.481L118.547 34.2898H118.468L116.534 28.3636H114.943L117.737 36.0994L117.553 36.6065C117.175 37.6207 116.643 37.7053 115.828 37.4815L115.47 38.6996C115.649 38.7791 116.036 38.8636 116.484 38.8636Z" fill="white"/>
<path d="M45.8466 17.1534C46.9886 17.1534 47.5852 16.5398 47.7898 16.1136H47.8409V17H48.8466V12.6875C48.8466 10.608 47.2614 10.3693 46.4261 10.3693C45.4375 10.3693 44.3125 10.7102 43.8011 11.9034L44.7557 12.2443C44.9773 11.767 45.5014 11.2557 46.4602 11.2557C47.3849 11.2557 47.8409 11.7457 47.8409 12.5852V12.6193C47.8409 13.1051 47.3466 13.0625 46.1534 13.2159C44.9389 13.3736 43.6136 13.642 43.6136 15.142C43.6136 16.4205 44.6023 17.1534 45.8466 17.1534ZM46 16.25C45.1989 16.25 44.6193 15.892 44.6193 15.1932C44.6193 14.4261 45.3182 14.1875 46.1023 14.0852C46.5284 14.0341 47.6705 13.9148 47.8409 13.7102V14.6307C47.8409 15.4489 47.1932 16.25 46 16.25ZM55.8001 10.4545H54.7092L52.9023 15.6705H52.8342L51.0273 10.4545H49.9364L52.3569 17H53.3796L55.8001 10.4545ZM58.8544 17.1534C59.9964 17.1534 60.593 16.5398 60.7976 16.1136H60.8487V17H61.8544V12.6875C61.8544 10.608 60.2692 10.3693 59.4339 10.3693C58.4453 10.3693 57.3203 10.7102 56.8089 11.9034L57.7635 12.2443C57.9851 11.767 58.5092 11.2557 59.468 11.2557C60.3928 11.2557 60.8487 11.7457 60.8487 12.5852V12.6193C60.8487 13.1051 60.3544 13.0625 59.1612 13.2159C57.9467 13.3736 56.6214 13.642 56.6214 15.142C56.6214 16.4205 57.6101 17.1534 58.8544 17.1534ZM59.0078 16.25C58.2067 16.25 57.6271 15.892 57.6271 15.1932C57.6271 14.4261 58.326 14.1875 59.1101 14.0852C59.5362 14.0341 60.6783 13.9148 60.8487 13.7102V14.6307C60.8487 15.4489 60.201 16.25 59.0078 16.25ZM63.69 17H64.6957V10.4545H63.69V17ZM64.2013 9.36364C64.5934 9.36364 64.9173 9.05682 64.9173 8.68182C64.9173 8.30682 64.5934 8 64.2013 8C63.8093 8 63.4854 8.30682 63.4854 8.68182C63.4854 9.05682 63.8093 9.36364 64.2013 9.36364ZM67.5433 8.27273H66.5376V17H67.5433V8.27273ZM71.3114 17.1534C72.4535 17.1534 73.0501 16.5398 73.2546 16.1136H73.3058V17H74.3114V12.6875C74.3114 10.608 72.7262 10.3693 71.891 10.3693C70.9023 10.3693 69.7773 10.7102 69.266 11.9034L70.2205 12.2443C70.4421 11.767 70.9663 11.2557 71.9251 11.2557C72.8498 11.2557 73.3058 11.7457 73.3058 12.5852V12.6193C73.3058 13.1051 72.8114 13.0625 71.6183 13.2159C70.4038 13.3736 69.0785 13.642 69.0785 15.142C69.0785 16.4205 70.0671 17.1534 71.3114 17.1534ZM71.4648 16.25C70.6637 16.25 70.0842 15.892 70.0842 15.1932C70.0842 14.4261 70.783 14.1875 71.5671 14.0852C71.9933 14.0341 73.1353 13.9148 73.3058 13.7102V14.6307C73.3058 15.4489 72.658 16.25 71.4648 16.25ZM76.2834 17H77.255V15.9943H77.3743C77.5959 16.3523 78.022 17.1364 79.2834 17.1364C80.9197 17.1364 82.0618 15.8239 82.0618 13.7443C82.0618 11.6818 80.9197 10.3693 79.2663 10.3693C77.9879 10.3693 77.5959 11.1534 77.3743 11.4943H77.2891V8.27273H76.2834V17ZM77.272 13.7273C77.272 12.2614 77.9197 11.2727 79.147 11.2727C80.4254 11.2727 81.0561 12.3466 81.0561 13.7273C81.0561 15.125 80.4084 16.233 79.147 16.233C77.9368 16.233 77.272 15.2102 77.272 13.7273ZM84.6058 8.27273H83.6001V17H84.6058V8.27273ZM89.1921 17.1364C90.5217 17.1364 91.4933 16.4716 91.8001 15.483L90.8285 15.2102C90.5728 15.892 89.9805 16.233 89.1921 16.233C88.0117 16.233 87.1978 15.4702 87.1509 14.0682H91.9023V13.642C91.9023 11.2045 90.4535 10.3693 89.0898 10.3693C87.3171 10.3693 86.141 11.767 86.141 13.7784C86.141 15.7898 87.3001 17.1364 89.1921 17.1364ZM87.1509 13.1989C87.2191 12.1804 87.9393 11.2727 89.0898 11.2727C90.1808 11.2727 90.8796 12.0909 90.8796 13.1989H87.1509ZM99.4663 17.1364C101.239 17.1364 102.432 15.7898 102.432 13.7614C102.432 11.7159 101.239 10.3693 99.4663 10.3693C97.6935 10.3693 96.5004 11.7159 96.5004 13.7614C96.5004 15.7898 97.6935 17.1364 99.4663 17.1364ZM99.4663 16.233C98.1197 16.233 97.506 15.0739 97.506 13.7614C97.506 12.4489 98.1197 11.2727 99.4663 11.2727C100.813 11.2727 101.426 12.4489 101.426 13.7614C101.426 15.0739 100.813 16.233 99.4663 16.233ZM104.973 13.0625C104.973 11.9205 105.68 11.2727 106.643 11.2727C107.577 11.2727 108.143 11.8821 108.143 12.9091V17H109.149V12.8409C109.149 11.1705 108.259 10.3693 106.933 10.3693C105.945 10.3693 105.331 10.8125 105.024 11.4773H104.939V10.4545H103.967V17H104.973V13.0625Z" fill="white"/>
<g clip-path="url(#clip0_404_242)">
<path d="M14.609 10.814L24.792 21L14.61 31.186C14.4289 31.1098 14.2744 30.9819 14.1659 30.8182C14.0574 30.6545 13.9996 30.4624 14 30.266V11.734C14.0001 11.5378 14.0579 11.346 14.1661 11.1824C14.2744 11.0188 14.4284 10.8907 14.609 10.814ZM25.499 21.707L27.801 24.009L16.864 30.342L25.499 21.707ZM28.698 18.509L31.505 20.135C31.6565 20.2229 31.7823 20.349 31.8698 20.5009C31.9572 20.6527 32.0032 20.8248 32.0032 21C32.0032 21.1752 31.9572 21.3473 31.8698 21.4991C31.7823 21.6509 31.6565 21.7771 31.505 21.865L28.697 23.491L26.206 21L28.698 18.509ZM16.864 11.658L27.802 17.99L25.499 20.293L16.864 11.658Z" fill="white"/>
</g>
<defs>
<clipPath id="clip0_404_242">
<rect width="24" height="24" fill="white" transform="translate(11 9)"/>
</clipPath>
</defs>
</svg>
