<svg width="137" height="44" viewBox="0 0 137 44" fill="none" xmlns="http://www.w3.org/2000/svg">
<rect width="137" height="44" rx="22" fill="#57636C"/>
<g clip-path="url(#clip0_404_235)">
<path d="M26.6239 16.2221C25.7479 16.2221 24.3919 15.2261 22.9639 15.2621C21.0799 15.2861 19.3519 16.3541 18.3799 18.0461C16.4239 21.4421 17.8759 26.4581 19.7839 29.2181C20.7199 30.5621 21.8239 32.0741 23.2879 32.0261C24.6919 31.9661 25.2199 31.1141 26.9239 31.1141C28.6159 31.1141 29.0959 32.0261 30.5839 31.9901C32.0959 31.9661 33.0559 30.6221 33.9799 29.2661C35.0479 27.7061 35.4919 26.1941 35.5159 26.1101C35.4799 26.0981 32.5759 24.9821 32.5399 21.6221C32.5159 18.8141 34.8319 17.4701 34.9399 17.4101C33.6199 15.4781 31.5919 15.2621 30.8839 15.2141C29.0359 15.0701 27.4879 16.2221 26.6239 16.2221ZM29.7439 13.3901C30.5239 12.4541 31.0399 11.1461 30.8959 9.8501C29.7799 9.8981 28.4359 10.5941 27.6319 11.5301C26.9119 12.3581 26.2879 13.6901 26.4559 14.9621C27.6919 15.0581 28.9639 14.3261 29.7439 13.3901Z" fill="white"/>
</g>
<path d="M45.9787 36L46.9134 33.3054H50.8906L51.8203 36H53.451L49.7869 25.8182H48.0121L44.348 36H45.9787ZM47.3608 32.0128L48.8622 27.6676H48.9418L50.4432 32.0128H47.3608ZM54.802 38.8636H56.2885V34.8118H56.378C56.6465 35.299 57.1934 36.1491 58.5854 36.1491C60.4348 36.1491 61.7772 34.6676 61.7772 32.1967C61.7772 29.7209 60.415 28.2642 58.5705 28.2642C57.1536 28.2642 56.6415 29.1293 56.378 29.6016H56.2537V28.3636H54.802V38.8636ZM56.2587 32.1818C56.2587 30.5859 56.9547 29.527 58.2523 29.527C59.5996 29.527 60.2757 30.6655 60.2757 32.1818C60.2757 33.7131 59.5797 34.8814 58.2523 34.8814C56.9746 34.8814 56.2587 33.7876 56.2587 32.1818ZM63.4426 38.8636H64.9292V34.8118H65.0186C65.2871 35.299 65.834 36.1491 67.226 36.1491C69.0755 36.1491 70.4178 34.6676 70.4178 32.1967C70.4178 29.7209 69.0556 28.2642 67.2111 28.2642C65.7942 28.2642 65.2821 29.1293 65.0186 29.6016H64.8944V28.3636H63.4426V38.8636ZM64.8993 32.1818C64.8993 30.5859 65.5953 29.527 66.8929 29.527C68.2402 29.527 68.9164 30.6655 68.9164 32.1818C68.9164 33.7131 68.2203 34.8814 66.8929 34.8814C65.6152 34.8814 64.8993 33.7876 64.8993 32.1818ZM73.5698 25.8182H72.0833V36H73.5698V25.8182ZM78.8608 36.1541C80.5263 36.1541 81.7045 35.3338 82.0426 34.0909L80.6357 33.8374C80.3672 34.5582 79.7209 34.9261 78.8757 34.9261C77.603 34.9261 76.7479 34.1009 76.7081 32.6293H82.1371V32.1023C82.1371 29.343 80.4865 28.2642 78.7564 28.2642C76.6286 28.2642 75.2266 29.8849 75.2266 32.2315C75.2266 34.603 76.6087 36.1541 78.8608 36.1541ZM76.7131 31.5156C76.7727 30.4318 77.5582 29.4922 78.7663 29.4922C79.9197 29.4922 80.6754 30.3473 80.6804 31.5156H76.7131ZM93.1641 28.4929H94.6456C94.6009 26.8622 93.1591 25.679 91.0909 25.679C89.0476 25.679 87.4815 26.8473 87.4815 28.6023C87.4815 30.0192 88.4957 30.8494 90.1314 31.2919L91.3345 31.62C92.4233 31.9084 93.2635 32.2663 93.2635 33.1712C93.2635 34.1655 92.3139 34.8217 91.0064 34.8217C89.8232 34.8217 88.8388 34.2947 88.7493 33.1861H87.2081C87.3075 35.0305 88.7344 36.169 91.0163 36.169C93.4077 36.169 94.7848 34.9112 94.7848 33.1861C94.7848 31.3516 93.1491 30.6406 91.8565 30.3224L90.8622 30.0639C90.0668 29.8601 89.0078 29.4872 89.0128 28.5128C89.0128 27.6477 89.8033 27.0064 91.0561 27.0064C92.2244 27.0064 93.0547 27.5533 93.1641 28.4929ZM100.066 28.3636H98.4998V26.5341H97.0133V28.3636H95.8947V29.5568H97.0133V34.0661C97.0083 35.4531 98.0673 36.1243 99.2406 36.0994C99.7129 36.0945 100.031 36.005 100.205 35.9403L99.9366 34.7124C99.8372 34.7322 99.6532 34.777 99.4146 34.777C98.9324 34.777 98.4998 34.6179 98.4998 33.7578V29.5568H100.066V28.3636ZM104.845 36.1541C106.998 36.1541 108.404 34.5781 108.404 32.2166C108.404 29.8402 106.998 28.2642 104.845 28.2642C102.692 28.2642 101.285 29.8402 101.285 32.2166C101.285 34.5781 102.692 36.1541 104.845 36.1541ZM104.85 34.9062C103.443 34.9062 102.787 33.6783 102.787 32.2116C102.787 30.75 103.443 29.5071 104.85 29.5071C106.247 29.5071 106.903 30.75 106.903 32.2116C106.903 33.6783 106.247 34.9062 104.85 34.9062ZM110.064 36H111.55V31.3366C111.55 30.3374 112.321 29.6165 113.375 29.6165C113.683 29.6165 114.031 29.6712 114.15 29.706V28.2841C114.001 28.2642 113.708 28.2493 113.519 28.2493C112.624 28.2493 111.858 28.7564 111.58 29.5767H111.501V28.3636H110.064V36ZM118.455 36.1541C120.12 36.1541 121.298 35.3338 121.636 34.0909L120.229 33.8374C119.961 34.5582 119.315 34.9261 118.469 34.9261C117.197 34.9261 116.342 34.1009 116.302 32.6293H121.731V32.1023C121.731 29.343 120.08 28.2642 118.35 28.2642C116.222 28.2642 114.82 29.8849 114.82 32.2315C114.82 34.603 116.202 36.1541 118.455 36.1541ZM116.307 31.5156C116.366 30.4318 117.152 29.4922 118.36 29.4922C119.513 29.4922 120.269 30.3473 120.274 31.5156H116.307Z" fill="white"/>
<path d="M46.8466 17.1534C47.9886 17.1534 48.5852 16.5398 48.7898 16.1136H48.8409V17H49.8466V12.6875C49.8466 10.608 48.2614 10.3693 47.4261 10.3693C46.4375 10.3693 45.3125 10.7102 44.8011 11.9034L45.7557 12.2443C45.9773 11.767 46.5014 11.2557 47.4602 11.2557C48.3849 11.2557 48.8409 11.7457 48.8409 12.5852V12.6193C48.8409 13.1051 48.3466 13.0625 47.1534 13.2159C45.9389 13.3736 44.6136 13.642 44.6136 15.142C44.6136 16.4205 45.6023 17.1534 46.8466 17.1534ZM47 16.25C46.1989 16.25 45.6193 15.892 45.6193 15.1932C45.6193 14.4261 46.3182 14.1875 47.1023 14.0852C47.5284 14.0341 48.6705 13.9148 48.8409 13.7102V14.6307C48.8409 15.4489 48.1932 16.25 47 16.25ZM56.8001 10.4545H55.7092L53.9023 15.6705H53.8342L52.0273 10.4545H50.9364L53.3569 17H54.3796L56.8001 10.4545ZM59.8544 17.1534C60.9964 17.1534 61.593 16.5398 61.7976 16.1136H61.8487V17H62.8544V12.6875C62.8544 10.608 61.2692 10.3693 60.4339 10.3693C59.4453 10.3693 58.3203 10.7102 57.8089 11.9034L58.7635 12.2443C58.9851 11.767 59.5092 11.2557 60.468 11.2557C61.3928 11.2557 61.8487 11.7457 61.8487 12.5852V12.6193C61.8487 13.1051 61.3544 13.0625 60.1612 13.2159C58.9467 13.3736 57.6214 13.642 57.6214 15.142C57.6214 16.4205 58.6101 17.1534 59.8544 17.1534ZM60.0078 16.25C59.2067 16.25 58.6271 15.892 58.6271 15.1932C58.6271 14.4261 59.326 14.1875 60.1101 14.0852C60.5362 14.0341 61.6783 13.9148 61.8487 13.7102V14.6307C61.8487 15.4489 61.201 16.25 60.0078 16.25ZM64.69 17H65.6957V10.4545H64.69V17ZM65.2013 9.36364C65.5934 9.36364 65.9173 9.05682 65.9173 8.68182C65.9173 8.30682 65.5934 8 65.2013 8C64.8093 8 64.4854 8.30682 64.4854 8.68182C64.4854 9.05682 64.8093 9.36364 65.2013 9.36364ZM68.5433 8.27273H67.5376V17H68.5433V8.27273ZM72.3114 17.1534C73.4535 17.1534 74.0501 16.5398 74.2546 16.1136H74.3058V17H75.3114V12.6875C75.3114 10.608 73.7262 10.3693 72.891 10.3693C71.9023 10.3693 70.7773 10.7102 70.266 11.9034L71.2205 12.2443C71.4421 11.767 71.9663 11.2557 72.9251 11.2557C73.8498 11.2557 74.3058 11.7457 74.3058 12.5852V12.6193C74.3058 13.1051 73.8114 13.0625 72.6183 13.2159C71.4038 13.3736 70.0785 13.642 70.0785 15.142C70.0785 16.4205 71.0671 17.1534 72.3114 17.1534ZM72.4648 16.25C71.6637 16.25 71.0842 15.892 71.0842 15.1932C71.0842 14.4261 71.783 14.1875 72.5671 14.0852C72.9933 14.0341 74.1353 13.9148 74.3058 13.7102V14.6307C74.3058 15.4489 73.658 16.25 72.4648 16.25ZM77.2834 17H78.255V15.9943H78.3743C78.5959 16.3523 79.022 17.1364 80.2834 17.1364C81.9197 17.1364 83.0618 15.8239 83.0618 13.7443C83.0618 11.6818 81.9197 10.3693 80.2663 10.3693C78.9879 10.3693 78.5959 11.1534 78.3743 11.4943H78.2891V8.27273H77.2834V17ZM78.272 13.7273C78.272 12.2614 78.9197 11.2727 80.147 11.2727C81.4254 11.2727 82.0561 12.3466 82.0561 13.7273C82.0561 15.125 81.4084 16.233 80.147 16.233C78.9368 16.233 78.272 15.2102 78.272 13.7273ZM85.6058 8.27273H84.6001V17H85.6058V8.27273ZM90.1921 17.1364C91.5217 17.1364 92.4933 16.4716 92.8001 15.483L91.8285 15.2102C91.5728 15.892 90.9805 16.233 90.1921 16.233C89.0117 16.233 88.1978 15.4702 88.1509 14.0682H92.9023V13.642C92.9023 11.2045 91.4535 10.3693 90.0898 10.3693C88.3171 10.3693 87.141 11.767 87.141 13.7784C87.141 15.7898 88.3001 17.1364 90.1921 17.1364ZM88.1509 13.1989C88.2191 12.1804 88.9393 11.2727 90.0898 11.2727C91.1808 11.2727 91.8796 12.0909 91.8796 13.1989H88.1509ZM100.466 17.1364C102.239 17.1364 103.432 15.7898 103.432 13.7614C103.432 11.7159 102.239 10.3693 100.466 10.3693C98.6935 10.3693 97.5004 11.7159 97.5004 13.7614C97.5004 15.7898 98.6935 17.1364 100.466 17.1364ZM100.466 16.233C99.1197 16.233 98.506 15.0739 98.506 13.7614C98.506 12.4489 99.1197 11.2727 100.466 11.2727C101.813 11.2727 102.426 12.4489 102.426 13.7614C102.426 15.0739 101.813 16.233 100.466 16.233ZM105.973 13.0625C105.973 11.9205 106.68 11.2727 107.643 11.2727C108.577 11.2727 109.143 11.8821 109.143 12.9091V17H110.149V12.8409C110.149 11.1705 109.259 10.3693 107.933 10.3693C106.945 10.3693 106.331 10.8125 106.024 11.4773H105.939V10.4545H104.967V17H105.973V13.0625Z" fill="white"/>
<defs>
<clipPath id="clip0_404_235">
<rect width="24" height="24" fill="white" transform="translate(15 9)"/>
</clipPath>
</defs>
</svg>
