<svg width="106" height="34" viewBox="0 0 106 34" fill="none" xmlns="http://www.w3.org/2000/svg">
<path d="M47.56 29L46.92 27.08L47.56 23.88V6.344H52.04V19.496L51.72 24.84H52.36L59.368 24.52L61.64 24.2L63.816 26.952L62.248 29H47.56ZM68.2225 12.296L64.7985 8.872L68.2225 5.448L71.6145 8.872L68.2225 12.296ZM65.9825 29V18.408L65.3105 15.848L65.9505 13.896H70.4305V29H65.9825ZM77.3745 29L73.3425 18.056L72.7025 13.896H77.5025L79.9025 24.52H80.5425L82.9745 13.896H87.7425L87.1025 18.056L82.8145 29H77.3745ZM94.455 29.32C93.0257 29.32 91.8097 28.9573 90.807 28.232C89.8257 27.4853 89.335 26.3333 89.335 24.776C89.335 23.1333 89.8577 21.8853 90.903 21.032C91.9483 20.1573 93.3457 19.72 95.095 19.72C96.375 19.72 97.3457 19.8267 98.007 20.04C98.6897 20.2533 99.1377 20.4133 99.351 20.52L99.575 20.328C99.575 19.688 99.5217 19.1227 99.415 18.632C99.3083 18.1413 99.063 17.768 98.679 17.512C98.295 17.2347 97.6977 17.096 96.887 17.096C95.4363 17.096 94.135 17.2133 92.983 17.448C91.8523 17.6827 90.9563 17.896 90.295 18.088V14.568C90.9563 14.3333 91.959 14.12 93.303 13.928C94.647 13.7147 96.0977 13.608 97.655 13.608C98.9777 13.608 100.055 13.7893 100.887 14.152C101.74 14.4933 102.391 14.9627 102.839 15.56C103.308 16.1573 103.628 16.8187 103.799 17.544C103.991 18.248 104.087 18.952 104.087 19.656V23.912L104.727 27.144L104.087 29.032H99.895V27.464L99.575 27.304C99.4043 27.5173 99.1057 27.784 98.679 28.104C98.2737 28.424 97.719 28.712 97.015 28.968C96.3323 29.2027 95.479 29.32 94.455 29.32ZM96.215 25.768C97.1323 25.768 97.847 25.6827 98.359 25.512C98.8923 25.3413 99.2977 25.1707 99.575 25V24.392C99.575 23.9867 99.3297 23.5813 98.839 23.176C98.3697 22.7707 97.591 22.568 96.503 22.568C95.6923 22.568 95.095 22.728 94.711 23.048C94.327 23.368 94.135 23.7733 94.135 24.264C94.135 24.776 94.3163 25.16 94.679 25.416C95.0417 25.6507 95.5537 25.768 96.215 25.768Z" fill="white"/>
<g clip-path="url(#clip0_205_39)">
<path d="M32.2505 34.0016H11.7306C8.86455 34.0016 6.65193 31.5294 7.02125 28.7399L7.32854 26.4223C7.86227 27.133 8.55884 27.7106 9.36202 28.1085C10.1652 28.5065 11.0525 28.7136 11.9523 28.7131C15.1203 28.7131 17.6977 26.1841 17.6977 23.0765C17.6977 19.9689 15.1182 17.4398 11.9523 17.4398C11.7334 17.4402 11.5147 17.4526 11.2972 17.4768C11.816 17.0311 12.1907 16.4464 12.3751 15.7946C12.5595 15.1427 12.5457 14.4522 12.3352 13.808C12.1248 13.1638 11.727 12.594 11.1907 12.1687C10.6545 11.7434 10.0032 11.4813 9.317 11.4145L9.585 9.37276C9.73321 8.2502 10.2929 7.21898 11.1596 6.47176C12.0263 5.72454 13.1406 5.31244 14.2944 5.31245H16.5955C16.4101 5.96057 16.2655 6.61925 16.1625 7.28479C15.8753 7.53809 15.6692 7.86779 15.5693 8.23382C15.4695 8.59984 15.4801 8.98644 15.6 9.34664C15.7199 9.70684 15.9438 10.0251 16.2446 10.2628C16.5453 10.5005 16.91 10.6474 17.2942 10.6857C17.6785 10.7239 18.0658 10.6518 18.4091 10.4782C18.7523 10.3045 19.0368 10.0368 19.228 9.70758C19.4191 9.37833 19.5086 9.0017 19.4857 8.62346C19.4628 8.24521 19.3284 7.88165 19.0989 7.57692C19.2306 6.80852 19.4234 6.05139 19.6754 5.31245H24.2197C24.5081 6.04784 24.7296 6.80685 24.8815 7.58058C24.6949 7.82926 24.5711 8.1178 24.5201 8.42252C24.4692 8.72724 24.4927 9.03946 24.5886 9.33356C24.6845 9.62767 24.8501 9.89528 25.0718 10.1144C25.2935 10.3336 25.5651 10.4981 25.8641 10.5943C26.1632 10.6906 26.4812 10.716 26.7922 10.6683C27.1032 10.6206 27.3982 10.5013 27.6531 10.3202C27.9079 10.139 28.1154 9.90109 28.2584 9.62603C28.4014 9.35097 28.4759 9.04655 28.4758 8.73777C28.477 8.46154 28.418 8.18826 28.3025 7.9363C28.1871 7.68435 28.018 7.45957 27.8067 7.27708C27.6812 6.61398 27.5164 5.95866 27.3129 5.31448H29.6876C30.8409 5.3146 31.9548 5.7265 32.8212 6.47329C33.6877 7.22008 34.2475 8.25071 34.3961 9.37276L36.9603 28.7383C37.3292 31.5266 35.1158 34.0016 32.2505 34.0016Z" fill="#F7931E"/>
<path d="M26.8108 7.90761C26.4572 5.15745 24.4302 0 21.8313 0C20.5828 0 19.3598 1.23347 18.3879 3.4732C17.7787 4.87586 17.318 6.56215 17.1745 7.90599C16.982 7.97803 16.8202 8.11217 16.7157 8.28636C16.6112 8.46055 16.5702 8.66444 16.5994 8.86451C16.6287 9.06459 16.7264 9.24896 16.8766 9.38733C17.0268 9.52569 17.2205 9.60983 17.4259 9.6259C17.6312 9.64198 17.8361 9.58904 18.0067 9.47579C18.1773 9.36253 18.3037 9.1957 18.3649 9.0027C18.4261 8.80971 18.4185 8.60202 18.3435 8.41378C18.2685 8.22553 18.1304 8.06792 17.952 7.96685C18.0877 6.71877 18.5352 5.08604 19.1059 3.77345C19.4984 2.86904 20.5497 0.765645 21.8313 0.765645C23.6606 0.765645 25.6858 5.13635 26.0366 7.9632C25.8968 8.04025 25.7803 8.15216 25.6988 8.28759C25.6174 8.42302 25.5738 8.57716 25.5726 8.73442C25.5713 8.89168 25.6124 9.04646 25.6918 9.18311C25.7711 9.31976 25.8858 9.43343 26.0243 9.5126C26.1628 9.59177 26.3202 9.63364 26.4805 9.63397C26.6408 9.6343 26.7983 9.59308 26.9372 9.51448C27.076 9.43588 27.1912 9.32269 27.2711 9.18637C27.351 9.05005 27.3928 8.89543 27.3923 8.73817C27.3927 8.55819 27.3373 8.38233 27.2335 8.23397C27.1296 8.08561 26.9822 7.97178 26.8108 7.90761Z" fill="#231F20"/>
<path d="M11.9502 27.5401C14.4632 27.5401 16.5004 25.5415 16.5004 23.0761C16.5004 20.6106 14.4632 18.612 11.9502 18.612C9.43725 18.612 7.40009 20.6106 7.40009 23.0761C7.40009 25.5415 9.43725 27.5401 11.9502 27.5401Z" fill="#5093F7"/>
<path d="M3.01041 21.0465C4.67301 21.0465 6.02081 19.7242 6.02081 18.0931C6.02081 16.4619 4.67301 15.1396 3.01041 15.1396C1.34781 15.1396 0 16.4619 0 18.0931C0 19.7242 1.34781 21.0465 3.01041 21.0465Z" fill="#F75892"/>
<path d="M11.2411 15.4109C11.546 14.1765 10.7731 12.9334 9.51491 12.6343C8.25669 12.3352 6.98955 13.0934 6.68469 14.3278C6.37983 15.5622 7.15268 16.8054 8.41091 17.1045C9.66913 17.4036 10.9363 16.6453 11.2411 15.4109Z" fill="#75B344"/>
<path d="M7.19287 9.59753C7.95614 9.40453 8.41542 8.64104 8.2187 7.89221C8.02198 7.14339 7.24376 6.6928 6.48049 6.8858C5.71722 7.07879 5.25794 7.84229 5.45466 8.59111C5.65138 9.33994 6.42961 9.79053 7.19287 9.59753Z" fill="#E1397D"/>
<path d="M3.81481 14.0125C4.50027 14.0125 5.05595 13.4673 5.05595 12.7948C5.05595 12.1223 4.50027 11.5772 3.81481 11.5772C3.12935 11.5772 2.57367 12.1223 2.57367 12.7948C2.57367 13.4673 3.12935 14.0125 3.81481 14.0125Z" fill="#694F8F"/>
</g>
<defs>
<clipPath id="clip0_205_39">
<rect width="37" height="34" fill="white"/>
</clipPath>
</defs>
</svg>
